<?xml version="1.0" encoding="UTF-8"?>
<svg version="1.1" xmlns="http://www.w3.org/2000/svg" width="250" height="100">
<path d="M0 0 C7.38728102 -0.02526692 14.77455098 -0.0428316 22.16186523 -0.05493164 C24.67716895 -0.05997363 27.19246972 -0.06680703 29.70776367 -0.07543945 C33.31429775 -0.08751094 36.92079323 -0.09322949 40.52734375 -0.09765625 C42.22575661 -0.10539818 42.22575661 -0.10539818 43.95848083 -0.11329651 C45.51998619 -0.11340981 45.51998619 -0.11340981 47.11303711 -0.11352539 C48.03459091 -0.115746 48.95614471 -0.11796661 49.90562439 -0.12025452 C52 0 52 0 53 1 C53.08863225 3.71557785 53.11522191 6.40557904 53.09765625 9.12109375 C53.0962413 9.93618912 53.09482635 10.75128448 53.09336853 11.59107971 C53.0877532 14.20658984 53.07520467 16.82201561 53.0625 19.4375 C53.0574864 21.19856647 53.05292325 22.95963428 53.04882812 24.72070312 C53.0375821 29.14716503 53.01947067 33.57356734 53 38 C53 40.80074414 54.20658938 42.52814858 55.5 45 C58 49.77777778 58 49.77777778 58 52 C36.55 52 15.1 52 -7 52 C-2 40 -2 40 -1 39 C-0.83976438 36.11747355 -0.74045971 33.25621473 -0.68359375 30.37109375 C-0.66281265 29.50686295 -0.64203156 28.64263214 -0.62062073 27.75221252 C-0.55502886 24.98072555 -0.49619582 22.20914079 -0.4375 19.4375 C-0.39432392 17.56314077 -0.35070994 15.68879157 -0.30664062 13.81445312 C-0.19933773 9.20973664 -0.09809785 4.60492142 0 0 Z M33 2 C33.33 4.97 33.66 7.94 34 11 C34.33 11 34.66 11 35 11 C35 8.36 35 5.72 35 3 C34.34 2.67 33.68 2.34 33 2 Z M3 4 C3 13.9 3 23.8 3 34 C3.66 33.67 4.32 33.34 5 33 C4.67 23.43 4.34 13.86 4 4 C3.67 4 3.34 4 3 4 Z M47 4 C47 13.9 47 23.8 47 34 C47.66 34 48.32 34 49 34 C49 24.1 49 14.2 49 4 C48.34 4 47.68 4 47 4 Z M22 9 C22.33 9.66 22.66 10.32 23 11 C23.33 10.34 23.66 9.68 24 9 C23.34 9 22.68 9 22 9 Z M29 10 C28.67 10.99 28.34 11.98 28 13 C28.66 13 29.32 13 30 13 C29.67 12.01 29.34 11.02 29 10 Z M33 11 C33 14 33 14 33 14 Z M18 12 C17.67 12.66 17.34 13.32 17 14 C17.66 14 18.32 14 19 14 C18.67 13.34 18.34 12.68 18 12 Z M24 18 C23.67 18.66 23.34 19.32 23 20 C24.32 19.34 25.64 18.68 27 18 C26.01 18 25.02 18 24 18 Z M9 19 C10 21 10 21 10 21 Z M42 20 C41.67 20.66 41.34 21.32 41 22 C41.99 21.67 42.98 21.34 44 21 C43.34 20.67 42.68 20.34 42 20 Z M34 14 C34.66 17.3 35.32 20.6 36 24 C33.525 23.505 33.525 23.505 31 23 C28.32530548 23.0879148 28.32530548 23.0879148 25.6875 23.4375 C24.80449219 23.53933594 23.92148437 23.64117187 23.01171875 23.74609375 C22.34785156 23.82988281 21.68398438 23.91367187 21 24 C20.67 23.34 20.34 22.68 20 22 C18.35 22.33 16.7 22.66 15 23 C15 23.99 15 24.98 15 26 C24.9 25.505 24.9 25.505 35 25 C35.33 25.66 35.66 26.32 36 27 C37.20272819 24.59454362 37.10071472 23.05003047 37.0625 20.375 C37.05347656 19.55773437 37.04445313 18.74046875 37.03515625 17.8984375 C37.02355469 17.27195312 37.01195313 16.64546875 37 16 C37.99 15.67 38.98 15.34 40 15 C37.03 14.505 37.03 14.505 34 14 Z M17 28 C17 28.66 17 29.32 17 30 C22.61 30 28.22 30 34 30 C34 29.67 34 29.34 34 29 C28.39 28.67 22.78 28.34 17 28 Z M10 48 C10 48.33 10 48.66 10 49 C20.56 49 31.12 49 42 49 C42 48.67 42 48.34 42 48 C31.44 48 20.88 48 10 48 Z " fill="#03AF7C" transform="translate(28,21)"/>
<path d="M0 0 C9.24 0 18.48 0 28 0 C28 3.96 28 7.92 28 12 C26.35 12 24.7 12 23 12 C23 20.91 23 29.82 23 39 C24.65 39 26.3 39 28 39 C28 42.63 28 46.26 28 50 C18.76 50 9.52 50 0 50 C0 46.37 0 42.74 0 39 C1.65 39 3.3 39 5 39 C5 30.09 5 21.18 5 12 C3.35 12 1.7 12 0 12 C0 8.04 0 4.08 0 0 Z " fill="#01318E" transform="translate(158,22)"/>
<path d="M0 0 C5.94 0 11.88 0 18 0 C20.10216505 5.99479481 22.20169288 11.99050433 24.29882812 17.98706055 C25.01197842 20.02507196 25.72583701 22.06283568 26.44042969 24.1003418 C27.46998347 27.03629079 28.49695067 29.97313377 29.5234375 32.91015625 C29.84122162 33.81459976 30.15900574 34.71904327 30.48641968 35.65089417 C30.7865799 36.51125778 31.08674011 37.3716214 31.39599609 38.25805664 C31.65802826 39.00640274 31.92006042 39.75474884 32.19003296 40.52577209 C33.2148624 43.65634589 34.09505477 46.83269171 35 50 C29.39 50 23.78 50 18 50 C14.01887372 40.71820277 10.48443829 31.32524789 7.06860352 21.82373047 C6.17599833 19.34303498 5.27673131 16.86482032 4.37695312 14.38671875 C3.80689633 12.80743431 3.23722029 11.22801237 2.66796875 9.6484375 C2.26495796 8.53920425 2.26495796 8.53920425 1.85380554 7.40756226 C0 2.22984587 0 2.22984587 0 0 Z " fill="#04BA80" transform="translate(187,22)"/>
<path d="M0 0 C0.95708359 0.0199855 1.91416718 0.03997101 2.9002533 0.06056213 C3.98129837 0.08065842 5.06234344 0.1007547 6.17614746 0.12145996 C7.35217026 0.14849503 8.52819305 0.17553009 9.73985291 0.2033844 C10.93702438 0.22699539 12.13419586 0.25060638 13.36764526 0.27493286 C17.20927629 0.3517971 21.05071715 0.43572311 24.89219666 0.51979065 C27.48919241 0.57298856 30.08619758 0.62572908 32.68321228 0.67799377 C39.06549262 0.80744288 45.44763057 0.9426974 51.82969666 1.08229065 C52.66788823 2.70479006 53.50010825 4.33037562 54.32969666 5.95729065 C54.79375916 6.86221252 55.25782166 7.7671344 55.73594666 8.69947815 C56.82969666 11.08229065 56.82969666 11.08229065 56.82969666 13.08229065 C35.37969666 13.08229065 13.92969666 13.08229065 -8.17030334 13.08229065 C-2.76300047 0.10476374 -2.76300047 0.10476374 0 0 Z M8.82969666 9.08229065 C8.82969666 9.41229065 8.82969666 9.74229065 8.82969666 10.08229065 C19.38969666 10.08229065 29.94969666 10.08229065 40.82969666 10.08229065 C40.82969666 9.75229065 40.82969666 9.42229065 40.82969666 9.08229065 C30.26969666 9.08229065 19.70969666 9.08229065 8.82969666 9.08229065 Z " fill="#04BE86" transform="translate(29.170303344726563,59.91770935058594)"/>
<path d="M0 0 C5.94 0 11.88 0 18 0 C15.67635653 9.25293154 12.57996715 18.14298325 9.3293457 27.10083008 C8.4289492 29.58610189 7.53936658 32.07507655 6.65039062 34.56445312 C6.0787676 36.14866951 5.50652493 37.73266249 4.93359375 39.31640625 C4.66896835 40.05903214 4.40434296 40.80165802 4.13169861 41.56678772 C2.22946526 46.77053474 2.22946526 46.77053474 0 49 C-1.99985813 44.13740078 -3.96739695 39.2594367 -5.75 34.3125 C-5.99234375 33.64863281 -6.2346875 32.98476563 -6.484375 32.30078125 C-8.18441346 24.71500356 -5.80590551 18.23395516 -3.5 11.0625 C-2.99919922 9.46438477 -2.99919922 9.46438477 -2.48828125 7.83398438 C-1.6677046 5.21986161 -0.83505122 2.60953508 0 0 Z " fill="#04B77E" transform="translate(223,22)"/>
<path d="M0 0 C0 13.2 0 26.4 0 40 C-10.45508982 40 -10.45508982 40 -14.0625 36.8125 C-19.12860765 31.19144769 -19.25532143 25.00771025 -19.14477539 17.76220703 C-18.60839152 10.25015423 -16.657924 6.47992353 -10.96875 1.44921875 C-8 0 -8 0 0 0 Z " fill="#01318E" transform="translate(127,32)"/>
<path d="M0 0 C22 0 44 0 66 0 C66.38218767 1.65614657 66.71395102 3.32457024 67 5 C66 6 66 6 63.37413025 6.12025452 C62.20386795 6.11803391 61.03360565 6.11581329 59.82788086 6.11352539 C58.86205833 6.11374443 58.86205833 6.11374443 57.87672424 6.1139679 C55.73939697 6.11326885 53.60215587 6.10547691 51.46484375 6.09765625 C49.98653715 6.09579204 48.50822993 6.09436815 47.02992249 6.09336853 C43.13201198 6.08954359 39.23413851 6.07971352 35.33624268 6.06866455 C31.36153667 6.05844992 27.38682471 6.0538708 23.41210938 6.04882812 C15.608056 6.03809122 7.80403318 6.02101509 0 6 C0 4.02 0 2.04 0 0 Z " fill="#05C084" transform="translate(21,74)"/>
<path d="M0 0 C12.54950495 -1.50594059 12.54950495 -1.50594059 18.22265625 1.98046875 C20.9480544 4.57253807 23.11462469 6.73940975 25 10 C25 12.31 25 14.62 25 17 C19.39 17 13.78 17 8 17 C8 15.02 8 13.04 8 11 C5.36 11 2.72 11 0 11 C0 7.37 0 3.74 0 0 Z " fill="#012F8A" transform="translate(128,32)"/>
<path d="M0 0 C5.61 0 11.22 0 17 0 C17 6.99626866 17 6.99626866 13.5 10.875 C9.63581582 14.57791807 6.82134095 15.51254632 1.64453125 15.61962891 C-1.59085134 15.53588117 -4.77883598 15.32014023 -8 15 C-8 11.7 -8 8.4 -8 5 C-5.36 5 -2.72 5 0 5 C0 3.35 0 1.7 0 0 Z " fill="#01308D" transform="translate(136,57)"/>
<path d="M0 0 C1.65 0.33 3.3 0.66 5 1 C5 1.66 5 2.32 5 3 C5.78375 3.28875 6.5675 3.5775 7.375 3.875 C10 5 10 5 12 7 C12.26991906 9.68839385 12.08737357 12.29141936 12 15 C5.33333333 15 -1.33333333 15 -8 15 C-8.66 15.66 -9.32 16.32 -10 17 C-10 13.7 -10 10.4 -10 7 C-9.195625 6.71125 -8.39125 6.4225 -7.5625 6.125 C-4.8673532 5.26737432 -4.8673532 5.26737432 -4 3 C-3.01 3.33 -2.02 3.66 -1 4 C-0.67 2.68 -0.34 1.36 0 0 Z M0 9 C-0.33 9.66 -0.66 10.32 -1 11 C0.32 10.34 1.64 9.68 3 9 C2.01 9 1.02 9 0 9 Z " fill="#04BD85" transform="translate(52,30)"/>
<path d="M0 0 C0.74886475 0.00523682 1.49772949 0.01047363 2.26928711 0.01586914 C3.07817383 0.0190918 3.88706055 0.02231445 4.72045898 0.02563477 C5.5705957 0.03401367 6.42073242 0.04239258 7.29663086 0.05102539 C8.15063477 0.05553711 9.00463867 0.06004883 9.88452148 0.06469727 C12.00108749 0.07652166 14.11761771 0.0944577 16.23413086 0.11352539 C16.56413086 1.10352539 16.89413086 2.09352539 17.23413086 3.11352539 C14.07341537 4.69388314 10.70138582 4.33927885 7.23413086 4.36352539 C6.12811523 4.39446289 6.12811523 4.39446289 4.99975586 4.42602539 C2.85913086 4.44165039 2.85913086 4.44165039 -0.76586914 4.11352539 C-1.42586914 3.12352539 -2.08586914 2.13352539 -2.76586914 1.11352539 C-1.76586914 0.11352539 -1.76586914 0.11352539 0 0 Z " fill="#03B98D" transform="translate(46.765869140625,45.886474609375)"/>
<path d="M0 0 C1.65 0.33 3.3 0.66 5 1 C5 1.66 5 2.32 5 3 C5.99 3.66 6.98 4.32 8 5 C3.71 5 -0.58 5 -5 5 C-4.67 4.34 -4.34 3.68 -4 3 C-3.01 3.33 -2.02 3.66 -1 4 C-0.67 2.68 -0.34 1.36 0 0 Z " fill="#02D3A7" transform="translate(52,30)"/>
<path d="M0 0 C2.64 0 5.28 0 8 0 C8 1.32 8 2.64 8 4 C5.36 4 2.72 4 0 4 C0 2.68 0 1.36 0 0 Z " fill="#028C69" transform="translate(50,74)"/>
<path d="M0 0 C1.65 0 3.3 0 5 0 C5.625 1.875 5.625 1.875 6 4 C5.34 4.66 4.68 5.32 4 6 C3.01 6 2.02 6 1 6 C-0.0625 4.125 -0.0625 4.125 -1 2 C-0.67 1.34 -0.34 0.68 0 0 Z " fill="#04BE84" transform="translate(51,13)"/>
<path d="M0 0 C0.99 0.66 1.98 1.32 3 2 C2.67 2.99 2.34 3.98 2 5 C0.68 4.67 -0.64 4.34 -2 4 C-2 3.01 -2 2.02 -2 1 C-1.34 0.67 -0.68 0.34 0 0 Z " fill="#03B07F" transform="translate(85,29)"/>
<path d="M0 0 C0.99 0.66 1.98 1.32 3 2 C3 2.66 3 3.32 3 4 C2.01 4.33 1.02 4.66 0 5 C-0.66 4.67 -1.32 4.34 -2 4 C-2 3.01 -2 2.02 -2 1 C-1.34 0.67 -0.68 0.34 0 0 Z " fill="#03B179" transform="translate(85,36)"/>
<path d="M0 0 C2.475 0.495 2.475 0.495 5 1 C5 1.66 5 2.32 5 3 C3.35 3 1.7 3 0 3 C0 2.01 0 1.02 0 0 Z " fill="#03B47C" transform="translate(83,44)"/>
<path d="M0 0 C0.99 0.33 1.98 0.66 3 1 C3 2.32 3 3.64 3 5 C2.01 5 1.02 5 0 5 C0 3.35 0 1.7 0 0 Z " fill="#03AC84" transform="translate(21,29)"/>
<path d="M0 0 C1.32 0 2.64 0 4 0 C3.67 1.32 3.34 2.64 3 4 C2.01 3.67 1.02 3.34 0 3 C0 2.01 0 1.02 0 0 Z " fill="#03B37B" transform="translate(82,15)"/>
<path d="M0 0 C0.99 0.33 1.98 0.66 3 1 C2.67 2.32 2.34 3.64 2 5 C1.34 5 0.68 5 0 5 C0 3.35 0 1.7 0 0 Z " fill="#02B780" transform="translate(21,36)"/>
<path d="M0 0 C0.99 0 1.98 0 3 0 C2.67 1.32 2.34 2.64 2 4 C1.34 4 0.68 4 0 4 C-0.33 3.01 -0.66 2.02 -1 1 C-0.67 0.67 -0.34 0.34 0 0 Z " fill="#03AF7C" transform="translate(22,15)"/>
<path d="M0 0 C0.99 0 1.98 0 3 0 C3 0.99 3 1.98 3 3 C2.01 3 1.02 3 0 3 C0 2.01 0 1.02 0 0 Z " fill="#03C492" transform="translate(21,44)"/>
</svg>
